<?xml version="1.0" encoding="utf-8"?>
<!-- Generator: Adobe Illustrator 25.0.0, SVG Export Plug-In . SVG Version: 6.00 Build 0)  -->
<svg version="1.1" id="Capa_1" xmlns="http://www.w3.org/2000/svg" xmlns:xlink="http://www.w3.org/1999/xlink" x="0px" y="0px"
	 viewBox="0 0 1125 2436" style="enable-background:new 0 0 1125 2436;" xml:space="preserve">
<style type="text/css">
	.st0{fill:#D7E1F9;}
</style>
<g>
	<path class="st0" d="M101,108c-3.1,0-6.2-0.7-9-2c-6-2.8-10.3-8.6-11.3-15c-0.4-3-0.1-5.9,0.1-8.4c0.3-2.8,0.6-5.3-0.3-6.8
		c-0.6-1.1-2.2-2.1-4.1-2.4c-2.7-0.5-5.9-0.1-10.1,1.5c-3,1.1-6.4-0.5-7.5-3.5c-1.1-3,0.5-6.4,3.5-7.5c3.9-1.4,9.9-3.2,16.2-1.9
		c5.3,1,9.7,4,12,8.2c2.7,4.7,2.1,9.7,1.7,13.7c-0.2,2-0.4,4-0.2,5.5c0.4,2.5,2.2,4.9,4.7,6.1c2.6,1.2,5.9,1.2,8.5-0.2
		c2.8-1.5,6.4-0.4,7.9,2.4c1.5,2.8,0.4,6.4-2.4,7.9C107.9,107.2,104.4,108,101,108z"/>
</g>
<g>
	<path class="st0" d="M366.6,85.4c-1.7,2.6-4,4.8-6.7,6.4c-5.7,3.4-12.9,3.8-18.7,1c-2.7-1.3-4.9-3.2-6.9-4.8
		c-2.2-1.8-4.1-3.4-5.8-3.5c-1.3-0.1-3,0.7-4.3,2c-1.9,1.9-3.3,4.8-4.4,9.2c-0.8,3.1-3.9,5-7.1,4.2c-3.1-0.8-5-3.9-4.2-7.1
		c1-4.1,2.9-10,7.4-14.6c3.8-3.8,8.7-5.8,13.5-5.4c5.4,0.4,9.2,3.6,12.3,6.2c1.6,1.3,3.1,2.6,4.5,3.2c2.3,1.1,5.3,0.9,7.7-0.5
		c2.5-1.5,4.3-4.3,4.6-7.1c0.3-3.2,3.2-5.5,6.4-5.2c3.2,0.3,5.5,3.2,5.2,6.4C369.8,79.2,368.6,82.6,366.6,85.4z"/>
</g>
<g>
	<path class="st0" d="M477.5,315.1c-2.9,1-6.1,1.3-9.2,1c-6.6-0.8-12.5-4.9-15.4-10.7c-1.4-2.7-2-5.5-2.5-8
		c-0.6-2.8-1.1-5.2-2.4-6.3c-1-0.9-2.8-1.3-4.6-1c-2.7,0.4-5.6,1.8-9.1,4.6c-2.5,2-6.2,1.6-8.2-1c-2-2.5-1.6-6.2,1-8.2
		c3.3-2.6,8.4-6.1,14.8-7c5.4-0.7,10.5,0.7,14,4c4,3.6,5.1,8.5,6,12.5c0.4,2,0.9,3.9,1.6,5.3c1.2,2.3,3.7,4,6.4,4.3
		c2.9,0.3,6-0.8,8-2.9c2.2-2.3,5.9-2.4,8.2-0.2c2.3,2.2,2.4,5.9,0.2,8.2C483.8,312.2,480.8,314,477.5,315.1z"/>
</g>
<g>
	<path class="st0" d="M662.1,117.6c-0.4-3.1-0.2-6.2,0.8-9.2c2-6.3,7.2-11.4,13.4-13.1c2.9-0.8,5.8-0.9,8.4-1
		c2.9-0.1,5.3-0.1,6.7-1.2c1-0.8,1.8-2.5,1.9-4.4c0.2-2.7-0.7-5.8-2.8-9.8c-1.5-2.9-0.4-6.4,2.5-7.9c2.9-1.5,6.4-0.4,7.9,2.5
		c1.9,3.7,4.4,9.4,4,15.8c-0.3,5.4-2.7,10.1-6.5,13c-4.3,3.3-9.3,3.4-13.4,3.5c-2,0.1-4,0.1-5.5,0.5c-2.5,0.7-4.6,2.8-5.5,5.5
		c-0.9,2.7-0.4,6,1.3,8.4c1.9,2.6,1.3,6.3-1.4,8.1c-2.6,1.9-6.3,1.3-8.1-1.4C663.8,124.4,662.5,121.1,662.1,117.6z"/>
</g>
<g>
	<path class="st0" d="M108.4,345.1c-0.4-3.1-0.2-6.2,0.8-9.2c2-6.3,7.2-11.4,13.4-13.1c2.9-0.8,5.8-0.9,8.4-1
		c2.9-0.1,5.3-0.1,6.7-1.2c1-0.8,1.8-2.5,1.9-4.4c0.2-2.7-0.7-5.8-2.8-9.8c-1.5-2.9-0.4-6.4,2.5-7.9c2.9-1.5,6.4-0.4,7.9,2.5
		c1.9,3.7,4.4,9.4,4,15.8c-0.3,5.4-2.7,10.1-6.5,13c-4.3,3.3-9.3,3.4-13.4,3.5c-2,0.1-4,0.1-5.5,0.5c-2.5,0.7-4.6,2.8-5.5,5.5
		c-0.9,2.7-0.4,6,1.3,8.4c1.9,2.6,1.3,6.3-1.4,8.1c-2.6,1.9-6.3,1.3-8.1-1.4C110.1,351.8,108.8,348.5,108.4,345.1z"/>
</g>
<g>
	<path class="st0" d="M1031,196.4c0.1,3.1-0.4,6.2-1.6,9.1c-2.6,6.1-8.2,10.7-14.5,11.9c-3,0.6-5.9,0.4-8.4,0.2
		c-2.8-0.2-5.3-0.3-6.8,0.6c-1.1,0.7-2,2.3-2.3,4.2c-0.4,2.7,0.2,5.9,1.9,10c1.2,3-0.2,6.4-3.2,7.6c-3,1.2-6.4-0.2-7.6-3.2
		c-1.6-3.9-3.6-9.8-2.6-16.1c0.8-5.3,3.6-9.8,7.7-12.4c4.6-2.8,9.6-2.5,13.6-2.3c2,0.1,4,0.3,5.5,0c2.5-0.5,4.9-2.4,5.9-5
		c1.1-2.7,0.9-6-0.5-8.4c-1.6-2.8-0.7-6.3,2.1-8c2.8-1.6,6.3-0.7,8,2.1C1029.9,189.6,1030.9,193,1031,196.4z"/>
</g>
<g>
	<path class="st0" d="M790.1,332.8c-2.1,2.3-4.6,4.2-7.5,5.4c-6.1,2.6-13.3,2-18.7-1.6c-2.5-1.7-4.5-3.8-6.2-5.7
		c-1.9-2.1-3.6-3.9-5.2-4.3c-1.3-0.3-3,0.3-4.5,1.4c-2.2,1.6-4,4.3-5.6,8.5c-1.2,3-4.6,4.4-7.6,3.2c-3-1.2-4.4-4.6-3.2-7.6
		c1.6-3.9,4.2-9.5,9.4-13.4c4.3-3.3,9.4-4.6,14.1-3.5c5.3,1.2,8.7,4.9,11.4,7.9c1.4,1.5,2.7,3,4,3.8c2.1,1.4,5.2,1.6,7.7,0.6
		c2.7-1.1,4.8-3.6,5.5-6.4c0.8-3.1,3.9-5,7-4.3c3.1,0.8,5,3.9,4.3,7C794.1,327.1,792.4,330.2,790.1,332.8z"/>
</g>
<g>
	<path class="st0" d="M541.3,172.9c0.4,3.1,0.1,6.2-0.9,9.2c-2.1,6.3-7.2,11.3-13.5,13c-2.9,0.8-5.8,0.9-8.4,0.9
		c-2.9,0.1-5.3,0.1-6.7,1.1c-1,0.8-1.8,2.5-1.9,4.4c-0.2,2.7,0.7,5.8,2.7,9.8c1.5,2.9,0.3,6.4-2.6,7.8c-2.9,1.5-6.4,0.3-7.8-2.6
		c-1.9-3.7-4.4-9.4-3.9-15.9c0.4-5.4,2.8-10.1,6.6-12.9c4.4-3.2,9.4-3.3,13.4-3.4c2,0,4-0.1,5.5-0.5c2.5-0.7,4.6-2.8,5.5-5.4
		c0.9-2.7,0.4-6-1.2-8.4c-1.9-2.6-1.2-6.3,1.4-8.1c2.6-1.9,6.3-1.2,8.1,1.4C539.7,166.2,540.9,169.5,541.3,172.9z"/>
</g>
<g>
	<path class="st0" d="M297.8,237.3c-3.1-0.5-6-1.6-8.6-3.4c-5.5-3.8-8.8-10.1-8.7-16.6c0-3,0.8-5.8,1.5-8.3c0.7-2.8,1.4-5.1,0.8-6.7
		c-0.4-1.2-1.9-2.4-3.6-3.1c-2.6-0.9-5.8-1-10.2-0.2c-3.2,0.6-6.2-1.5-6.8-4.6c-0.6-3.2,1.5-6.2,4.6-6.8c4.1-0.8,10.3-1.5,16.3,0.7
		c5.1,1.9,8.9,5.5,10.6,10c1.9,5.1,0.6,9.9-0.5,13.8c-0.5,2-1,3.8-1.1,5.4c0,2.6,1.4,5.2,3.7,6.8c2.4,1.6,5.7,2.1,8.4,1.2
		c3-1,6.4,0.6,7.4,3.6c1,3-0.6,6.4-3.6,7.4C304.7,237.6,301.2,237.9,297.8,237.3z"/>
</g>
<g>
	<path class="st0" d="M920.9,133.1c-3.1-0.5-6-1.6-8.6-3.4c-5.5-3.8-8.8-10.1-8.7-16.6c0-3,0.8-5.8,1.5-8.3c0.7-2.8,1.4-5.1,0.8-6.7
		c-0.4-1.2-1.9-2.4-3.6-3.1c-2.6-0.9-5.8-1-10.2-0.2c-3.2,0.6-6.2-1.5-6.8-4.6c-0.6-3.2,1.5-6.2,4.6-6.8c4.1-0.8,10.3-1.5,16.3,0.7
		c5.1,1.9,8.9,5.5,10.6,10c1.9,5.1,0.6,9.9-0.5,13.8c-0.5,2-1,3.8-1.1,5.4c0,2.6,1.4,5.2,3.7,6.8c2.4,1.6,5.7,2.1,8.4,1.2
		c3-1,6.4,0.6,7.4,3.6c1,3-0.6,6.4-3.6,7.4C927.9,133.4,924.3,133.6,920.9,133.1z"/>
</g>
<g>
	<path class="st0" d="M747.8,244.8c-3.1-0.5-6-1.6-8.6-3.4c-5.5-3.8-8.8-10.1-8.7-16.6c0-3,0.8-5.8,1.5-8.3c0.7-2.8,1.4-5.1,0.8-6.7
		c-0.4-1.2-1.9-2.4-3.6-3.1c-2.6-0.9-5.8-1-10.2-0.2c-3.2,0.6-6.2-1.5-6.8-4.6c-0.6-3.2,1.5-6.2,4.6-6.8c4.1-0.8,10.3-1.5,16.3,0.7
		c5.1,1.9,8.9,5.5,10.6,10c1.9,5.1,0.6,9.9-0.5,13.8c-0.5,2-1,3.8-1.1,5.4c0,2.6,1.4,5.2,3.7,6.8c2.4,1.6,5.7,2.1,8.4,1.2
		c3-1,6.4,0.6,7.4,3.6c1,3-0.6,6.4-3.6,7.4C754.7,245.1,751.2,245.4,747.8,244.8z"/>
</g>
<g>
	<path class="st0" d="M978.7,383.4c-2.1-2.3-3.7-5-4.7-7.9c-2-6.3-0.8-13.4,3.3-18.5c1.9-2.4,4.2-4.1,6.2-5.6
		c2.3-1.7,4.2-3.2,4.8-4.8c0.4-1.2,0-3.1-1-4.7c-1.4-2.3-4-4.3-7.9-6.4c-2.9-1.5-4-5-2.5-7.8c1.5-2.9,5-4,7.8-2.5
		c3.7,1.9,9.1,5.1,12.5,10.5c2.9,4.6,3.7,9.8,2.2,14.4c-1.6,5.2-5.6,8.2-8.9,10.6c-1.6,1.2-3.2,2.4-4.2,3.6c-1.6,2-2.1,5-1.3,7.6
		c0.9,2.7,3.2,5.1,5.9,6.1c3,1,4.7,4.4,3.6,7.4c-1,3-4.4,4.7-7.4,3.6C984,387.9,981.1,385.9,978.7,383.4z"/>
</g>
<g>
	<path class="st0" d="M91.9,475.9c-3.1,0-6.2-0.7-9-2c-6-2.8-10.3-8.6-11.3-15c-0.4-3-0.1-5.9,0.1-8.4c0.3-2.8,0.6-5.3-0.3-6.8
		c-0.6-1.1-2.2-2.1-4.1-2.4c-2.7-0.5-5.9-0.1-10.1,1.5c-3,1.1-6.4-0.5-7.5-3.5c-1.1-3,0.5-6.4,3.5-7.5c3.9-1.4,9.9-3.2,16.2-1.9
		c5.3,1,9.7,4,12,8.2c2.7,4.7,2.1,9.7,1.7,13.7c-0.2,2-0.4,4-0.2,5.5c0.4,2.5,2.2,4.9,4.7,6.1c2.6,1.2,5.9,1.2,8.5-0.2
		c2.8-1.5,6.4-0.4,7.9,2.4c1.5,2.8,0.4,6.4-2.4,7.9C98.7,475.1,95.3,475.9,91.9,475.9z"/>
</g>
<g>
	<path class="st0" d="M357.5,453.4c-1.7,2.6-4,4.8-6.7,6.4c-5.7,3.4-12.9,3.8-18.7,1c-2.7-1.3-4.9-3.2-6.9-4.8
		c-2.2-1.8-4.1-3.4-5.8-3.5c-1.3-0.1-3,0.7-4.3,2c-1.9,1.9-3.3,4.8-4.4,9.2c-0.8,3.1-3.9,5-7.1,4.2c-3.1-0.8-5-3.9-4.2-7.1
		c1-4.1,2.9-10,7.4-14.6c3.8-3.8,8.7-5.8,13.5-5.4c5.4,0.4,9.2,3.6,12.3,6.2c1.6,1.3,3.1,2.6,4.5,3.2c2.3,1.1,5.3,0.9,7.7-0.5
		c2.5-1.5,4.3-4.3,4.6-7.1c0.3-3.2,3.2-5.5,6.4-5.2c3.2,0.3,5.5,3.2,5.2,6.4C360.7,447.2,359.4,450.5,357.5,453.4z"/>
</g>
<g>
	<path class="st0" d="M468.3,683.1c-2.9,1-6.1,1.3-9.2,1c-6.6-0.8-12.5-4.9-15.4-10.7c-1.4-2.7-2-5.5-2.5-8
		c-0.6-2.8-1.1-5.2-2.4-6.3c-1-0.9-2.8-1.3-4.6-1c-2.7,0.4-5.6,1.8-9.1,4.6c-2.5,2-6.2,1.6-8.2-1c-2-2.5-1.6-6.2,1-8.2
		c3.3-2.6,8.4-6.1,14.8-7c5.4-0.7,10.5,0.7,14,4c4,3.6,5.1,8.5,6,12.5c0.4,2,0.9,3.9,1.6,5.3c1.2,2.3,3.7,4,6.4,4.3
		c2.9,0.3,6-0.8,8-2.9c2.2-2.3,5.9-2.4,8.2-0.2c2.3,2.2,2.4,5.9,0.2,8.2C474.6,680.1,471.6,682,468.3,683.1z"/>
</g>
<g>
	<path class="st0" d="M652.9,485.6c-0.4-3.1-0.2-6.2,0.8-9.2c2-6.3,7.2-11.4,13.4-13.1c2.9-0.8,5.8-0.9,8.4-1
		c2.9-0.1,5.3-0.1,6.7-1.2c1-0.8,1.8-2.5,1.9-4.4c0.2-2.7-0.7-5.8-2.8-9.8c-1.5-2.9-0.4-6.4,2.5-7.9c2.9-1.5,6.4-0.4,7.9,2.5
		c1.9,3.7,4.4,9.4,4,15.8c-0.3,5.4-2.7,10.1-6.5,13c-4.3,3.3-9.3,3.4-13.4,3.5c-2,0.1-4,0.1-5.5,0.5c-2.5,0.7-4.6,2.8-5.5,5.5
		c-0.9,2.7-0.4,6,1.3,8.4c1.9,2.6,1.3,6.3-1.4,8.1c-2.6,1.9-6.3,1.3-8.1-1.4C654.6,492.3,653.4,489,652.9,485.6z"/>
</g>
<g>
	<path class="st0" d="M99.2,713c-0.4-3.1-0.2-6.2,0.8-9.2c2-6.3,7.2-11.4,13.4-13.1c2.9-0.8,5.8-0.9,8.4-1c2.9-0.1,5.3-0.1,6.7-1.2
		c1-0.8,1.8-2.5,1.9-4.4c0.2-2.7-0.7-5.8-2.8-9.8c-1.5-2.9-0.4-6.4,2.5-7.9c2.9-1.5,6.4-0.4,7.9,2.5c1.9,3.7,4.4,9.4,4,15.8
		c-0.3,5.4-2.7,10.1-6.5,13c-4.3,3.3-9.3,3.4-13.4,3.5c-2,0.1-4,0.1-5.5,0.5c-2.5,0.7-4.6,2.8-5.5,5.5c-0.9,2.7-0.4,6,1.3,8.4
		c1.9,2.6,1.3,6.3-1.4,8.1c-2.6,1.9-6.3,1.3-8.1-1.4C100.9,719.8,99.7,716.5,99.2,713z"/>
</g>
<g>
	<path class="st0" d="M984.8,602.5c-1.7-4.1-2.9-8.6-2.2-13.1c0.5-3.3,2.2-6.6,5-8.3c5-3.1,11.4-0.5,17.1-1.5
		c4.4-0.8,8.4-4.1,10.2-8.4c1.8-4.3,1.5-9.6-0.9-13.7"/>
	<path class="st0" d="M1021.9,564.4c0.1,3.1-0.4,6.2-1.6,9.1c-2.6,6.1-8.2,10.7-14.5,11.9c-3,0.6-5.9,0.4-8.4,0.2
		c-2.8-0.2-5.3-0.3-6.8,0.6c-1.1,0.7-2,2.3-2.3,4.2c-0.4,2.7,0.2,5.9,1.9,10c1.2,3-0.2,6.4-3.2,7.6c-3,1.2-6.4-0.2-7.6-3.2
		c-1.6-3.9-3.6-9.8-2.6-16.1c0.8-5.3,3.6-9.8,7.7-12.4c4.6-2.8,9.6-2.5,13.6-2.3c2,0.1,4,0.3,5.5,0c2.5-0.5,4.9-2.4,5.9-5
		c1.1-2.7,0.9-6-0.5-8.4c-1.6-2.8-0.7-6.3,2.1-8c2.8-1.6,6.3-0.7,8,2.1C1020.8,557.6,1021.7,561,1021.9,564.4z"/>
</g>
<g>
	<path class="st0" d="M780.9,700.8c-2.1,2.3-4.6,4.2-7.5,5.4c-6.1,2.6-13.3,2-18.7-1.6c-2.5-1.7-4.5-3.8-6.2-5.7
		c-1.9-2.1-3.6-3.9-5.2-4.3c-1.3-0.3-3,0.3-4.5,1.4c-2.2,1.6-4,4.3-5.6,8.5c-1.2,3-4.6,4.4-7.6,3.2c-3-1.2-4.4-4.6-3.2-7.6
		c1.6-3.9,4.2-9.5,9.4-13.4c4.3-3.3,9.4-4.6,14.1-3.5c5.3,1.2,8.7,4.9,11.4,7.9c1.4,1.5,2.7,3,4,3.8c2.1,1.4,5.2,1.6,7.7,0.6
		c2.7-1.1,4.8-3.6,5.5-6.4c0.8-3.1,3.9-5,7-4.3c3.1,0.8,5,3.9,4.3,7C784.9,695.1,783.2,698.2,780.9,700.8z"/>
</g>
<g>
	<path class="st0" d="M532.2,540.9c0.4,3.1,0.1,6.2-0.9,9.2c-2.1,6.3-7.2,11.3-13.5,13c-2.9,0.8-5.8,0.9-8.4,0.9
		c-2.9,0.1-5.3,0.1-6.7,1.1c-1,0.8-1.8,2.5-1.9,4.4c-0.2,2.7,0.7,5.8,2.7,9.8c1.5,2.9,0.3,6.4-2.6,7.8c-2.9,1.5-6.4,0.3-7.8-2.6
		c-1.9-3.7-4.4-9.4-3.9-15.9c0.4-5.4,2.8-10.1,6.6-12.9c4.4-3.2,9.4-3.3,13.4-3.4c2,0,4-0.1,5.5-0.5c2.5-0.7,4.6-2.8,5.5-5.4
		c0.9-2.7,0.4-6-1.2-8.4c-1.9-2.6-1.2-6.3,1.4-8.1c2.6-1.9,6.3-1.2,8.1,1.4C530.5,534.1,531.8,537.5,532.2,540.9z"/>
</g>
<g>
	<path class="st0" d="M288.6,605.3c-3.1-0.5-6-1.6-8.6-3.4c-5.5-3.8-8.8-10.1-8.7-16.6c0-3,0.8-5.8,1.5-8.3c0.7-2.8,1.4-5.1,0.8-6.7
		c-0.4-1.2-1.9-2.4-3.6-3.1c-2.6-0.9-5.8-1-10.2-0.2c-3.2,0.6-6.2-1.5-6.8-4.6c-0.6-3.2,1.5-6.2,4.6-6.8c4.1-0.8,10.3-1.5,16.3,0.7
		c5.1,1.9,8.9,5.5,10.6,10c1.9,5.1,0.6,9.9-0.5,13.8c-0.5,2-1,3.8-1.1,5.4c0,2.6,1.4,5.2,3.7,6.8c2.4,1.6,5.7,2.1,8.4,1.2
		c3-1,6.4,0.6,7.4,3.6c1,3-0.6,6.4-3.6,7.4C295.5,605.6,292,605.8,288.6,605.3z"/>
</g>
<g>
	<path class="st0" d="M911.8,501c-3.1-0.5-6-1.6-8.6-3.4c-5.5-3.8-8.8-10.1-8.7-16.6c0-3,0.8-5.8,1.5-8.3c0.7-2.8,1.4-5.1,0.8-6.7
		c-0.4-1.2-1.9-2.4-3.6-3.1c-2.6-0.9-5.8-1-10.2-0.2c-3.2,0.6-6.2-1.5-6.8-4.6c-0.6-3.2,1.5-6.2,4.6-6.8c4.1-0.8,10.3-1.5,16.3,0.7
		c5.1,1.9,8.9,5.5,10.6,10c1.9,5.1,0.6,9.9-0.5,13.8c-0.5,2-1,3.8-1.1,5.4c0,2.6,1.4,5.2,3.7,6.8c2.4,1.6,5.7,2.1,8.4,1.2
		c3-1,6.4,0.6,7.4,3.6c1,3-0.6,6.4-3.6,7.4C918.7,501.3,915.2,501.6,911.8,501z"/>
</g>
<g>
	<path class="st0" d="M738.6,612.8c-3.1-0.5-6-1.6-8.6-3.4c-5.5-3.8-8.8-10.1-8.7-16.6c0-3,0.8-5.8,1.5-8.3c0.7-2.8,1.4-5.1,0.8-6.7
		c-0.4-1.2-1.9-2.4-3.6-3.1c-2.6-0.9-5.8-1-10.2-0.2c-3.2,0.6-6.2-1.5-6.8-4.6c-0.6-3.2,1.5-6.2,4.6-6.8c4.1-0.8,10.3-1.5,16.3,0.7
		c5.1,1.9,8.9,5.5,10.6,10c1.9,5.1,0.6,9.9-0.5,13.8c-0.5,2-1,3.8-1.1,5.4c0,2.6,1.4,5.2,3.7,6.8c2.4,1.6,5.7,2.1,8.4,1.2
		c3-1,6.4,0.6,7.4,3.6c1,3-0.6,6.4-3.6,7.4C745.5,613.1,742,613.4,738.6,612.8z"/>
</g>
<g>
	<path class="st0" d="M969.6,751.4c-2.1-2.3-3.7-5-4.7-7.9c-2-6.3-0.8-13.4,3.3-18.5c1.9-2.4,4.2-4.1,6.2-5.6
		c2.3-1.7,4.2-3.2,4.8-4.8c0.4-1.2,0-3.1-1-4.7c-1.4-2.3-4-4.3-7.9-6.4c-2.9-1.5-4-5-2.5-7.8c1.5-2.9,5-4,7.8-2.5
		c3.7,1.9,9.1,5.1,12.5,10.5c2.9,4.6,3.7,9.8,2.2,14.4c-1.6,5.2-5.6,8.2-8.9,10.6c-1.6,1.2-3.2,2.4-4.2,3.6c-1.6,2-2.1,5-1.3,7.6
		c0.9,2.7,3.2,5.1,5.9,6.1c3,1,4.7,4.4,3.6,7.4c-1,3-4.4,4.7-7.4,3.6C974.9,755.9,971.9,753.9,969.6,751.4z"/>
</g>
<g>
	<path class="st0" d="M97.7,865c-3.1,0-6.2-0.7-9-2c-6-2.8-10.3-8.6-11.3-15c-0.4-3-0.1-5.9,0.1-8.4c0.3-2.8,0.6-5.3-0.3-6.8
		c-0.6-1.1-2.2-2.1-4.1-2.4c-2.7-0.5-5.9-0.1-10.1,1.5c-3,1.1-6.4-0.5-7.5-3.5c-1.1-3,0.5-6.4,3.5-7.5c3.9-1.4,9.9-3.2,16.2-1.9
		c5.3,1,9.7,4,12,8.2c2.7,4.7,2.1,9.7,1.7,13.7c-0.2,2-0.4,4-0.2,5.5c0.4,2.5,2.2,4.9,4.7,6.1c2.6,1.2,5.9,1.2,8.5-0.2
		c2.8-1.5,6.4-0.4,7.9,2.4c1.5,2.8,0.4,6.4-2.4,7.9C104.6,864.2,101.1,865,97.7,865z"/>
</g>
<g>
	<path class="st0" d="M363.3,842.4c-1.7,2.6-4,4.8-6.7,6.4c-5.7,3.4-12.9,3.8-18.7,1c-2.7-1.3-4.9-3.2-6.9-4.8
		c-2.2-1.8-4.1-3.4-5.8-3.5c-1.3-0.1-3,0.7-4.3,2c-1.9,1.9-3.3,4.8-4.4,9.2c-0.8,3.1-3.9,5-7.1,4.2c-3.1-0.8-5-3.9-4.2-7.1
		c1-4.1,2.9-10,7.4-14.6c3.8-3.8,8.7-5.8,13.5-5.4c5.4,0.4,9.2,3.6,12.3,6.2c1.6,1.3,3.1,2.6,4.5,3.2c2.3,1.1,5.3,0.9,7.7-0.5
		c2.5-1.5,4.3-4.3,4.6-7.1c0.3-3.2,3.2-5.5,6.4-5.2c3.2,0.3,5.5,3.2,5.2,6.4C366.5,836.3,365.2,839.6,363.3,842.4z"/>
</g>
<g>
	<path class="st0" d="M474.2,1072.1c-2.9,1-6.1,1.3-9.2,1c-6.6-0.8-12.5-4.9-15.4-10.7c-1.4-2.7-2-5.5-2.5-8
		c-0.6-2.8-1.1-5.2-2.4-6.3c-1-0.9-2.8-1.3-4.6-1c-2.7,0.4-5.6,1.8-9.1,4.6c-2.5,2-6.2,1.6-8.2-1c-2-2.5-1.6-6.2,1-8.2
		c3.3-2.6,8.4-6.1,14.8-7c5.4-0.7,10.5,0.7,14,4c4,3.6,5.1,8.5,6,12.5c0.4,2,0.9,3.9,1.6,5.3c1.2,2.3,3.7,4,6.4,4.3
		c2.9,0.3,6-0.8,8-2.9c2.2-2.3,5.9-2.4,8.2-0.2c2.3,2.2,2.4,5.9,0.2,8.2C480.4,1069.2,477.4,1071.1,474.2,1072.1z"/>
</g>
<g>
	<path class="st0" d="M658.7,874.7c-0.4-3.1-0.2-6.2,0.8-9.2c2-6.3,7.2-11.4,13.4-13.1c2.9-0.8,5.8-0.9,8.4-1
		c2.9-0.1,5.3-0.1,6.7-1.2c1-0.8,1.8-2.5,1.9-4.4c0.2-2.7-0.7-5.8-2.8-9.8c-1.5-2.9-0.4-6.4,2.5-7.9c2.9-1.5,6.4-0.4,7.9,2.5
		c1.9,3.7,4.4,9.4,4,15.8c-0.3,5.4-2.7,10.1-6.5,13c-4.3,3.3-9.3,3.4-13.4,3.5c-2,0.1-4,0.1-5.5,0.5c-2.5,0.7-4.6,2.8-5.5,5.5
		c-0.9,2.7-0.4,6,1.3,8.4c1.9,2.6,1.3,6.3-1.4,8.1c-2.6,1.9-6.3,1.3-8.1-1.4C660.4,881.4,659.2,878.1,658.7,874.7z"/>
</g>
<g>
	<path class="st0" d="M105,1102.1c-0.4-3.1-0.2-6.2,0.8-9.2c2-6.3,7.2-11.4,13.4-13.1c2.9-0.8,5.8-0.9,8.4-1
		c2.9-0.1,5.3-0.1,6.7-1.2c1-0.8,1.8-2.5,1.9-4.4c0.2-2.7-0.7-5.8-2.8-9.8c-1.5-2.9-0.4-6.4,2.5-7.9c2.9-1.5,6.4-0.4,7.9,2.5
		c1.9,3.7,4.4,9.4,4,15.8c-0.3,5.4-2.7,10.1-6.5,13c-4.3,3.3-9.3,3.4-13.4,3.5c-2,0.1-4,0.1-5.5,0.5c-2.5,0.7-4.6,2.8-5.5,5.5
		c-0.9,2.7-0.4,6,1.3,8.4c1.9,2.6,1.3,6.3-1.4,8.1c-2.6,1.9-6.3,1.3-8.1-1.4C106.7,1108.8,105.5,1105.5,105,1102.1z"/>
</g>
<g>
	<path class="st0" d="M1027.7,953.5c0.1,3.1-0.4,6.2-1.6,9.1c-2.6,6.1-8.2,10.7-14.5,11.9c-3,0.6-5.9,0.4-8.4,0.2
		c-2.8-0.2-5.3-0.3-6.8,0.6c-1.1,0.7-2,2.3-2.3,4.2c-0.4,2.7,0.2,5.9,1.9,10c1.2,3-0.2,6.4-3.2,7.6c-3,1.2-6.4-0.2-7.6-3.2
		c-1.6-3.9-3.6-9.8-2.6-16.1c0.8-5.3,3.6-9.8,7.7-12.4c4.6-2.8,9.6-2.5,13.6-2.3c2,0.1,4,0.3,5.5,0c2.5-0.5,4.9-2.4,5.9-5
		c1.1-2.7,0.9-6-0.5-8.4c-1.6-2.8-0.7-6.3,2.1-8c2.8-1.6,6.3-0.7,8,2.1C1026.6,946.6,1027.6,950,1027.7,953.5z"/>
</g>
<g>
	<path class="st0" d="M786.8,1089.8c-2.1,2.3-4.6,4.2-7.5,5.4c-6.1,2.6-13.3,2-18.7-1.6c-2.5-1.7-4.5-3.8-6.2-5.7
		c-1.9-2.1-3.6-3.9-5.2-4.3c-1.3-0.3-3,0.3-4.5,1.4c-2.2,1.6-4,4.3-5.6,8.5c-1.2,3-4.6,4.4-7.6,3.2c-3-1.2-4.4-4.6-3.2-7.6
		c1.6-3.9,4.2-9.5,9.4-13.4c4.3-3.3,9.4-4.6,14.1-3.5c5.3,1.2,8.7,4.9,11.4,7.9c1.4,1.5,2.7,3,4,3.8c2.1,1.4,5.2,1.6,7.7,0.6
		c2.7-1.1,4.8-3.6,5.5-6.4c0.8-3.1,3.9-5,7-4.3c3.1,0.8,5,3.9,4.3,7C790.8,1084.2,789.1,1087.3,786.8,1089.8z"/>
</g>
<g>
	<path class="st0" d="M538,929.9c0.4,3.1,0.1,6.2-0.9,9.2c-2.1,6.3-7.2,11.3-13.5,13c-2.9,0.8-5.8,0.9-8.4,0.9
		c-2.9,0.1-5.3,0.1-6.7,1.1c-1,0.8-1.8,2.5-1.9,4.4c-0.2,2.7,0.7,5.8,2.7,9.8c1.5,2.9,0.3,6.4-2.6,7.8c-2.9,1.5-6.4,0.3-7.8-2.6
		c-1.9-3.7-4.4-9.4-3.9-15.9c0.4-5.4,2.8-10.1,6.6-12.9c4.4-3.2,9.4-3.3,13.4-3.4c2,0,4-0.1,5.5-0.5c2.5-0.7,4.6-2.8,5.5-5.4
		c0.9-2.7,0.4-6-1.2-8.4c-1.9-2.6-1.2-6.3,1.4-8.1c2.6-1.9,6.3-1.2,8.1,1.4C536.4,923.2,537.6,926.5,538,929.9z"/>
</g>
<g>
	<path class="st0" d="M294.4,994.3c-3.1-0.5-6-1.6-8.6-3.4c-5.5-3.8-8.8-10.1-8.7-16.6c0-3,0.8-5.8,1.5-8.3c0.7-2.8,1.4-5.1,0.8-6.7
		c-0.4-1.2-1.9-2.4-3.6-3.1c-2.6-0.9-5.8-1-10.2-0.2c-3.2,0.6-6.2-1.5-6.8-4.6c-0.6-3.2,1.5-6.2,4.6-6.8c4.1-0.8,10.3-1.5,16.3,0.7
		c5.1,1.9,8.9,5.5,10.6,10c1.9,5.1,0.6,9.9-0.5,13.8c-0.5,2-1,3.8-1.1,5.4c0,2.6,1.4,5.2,3.7,6.8c2.4,1.6,5.7,2.1,8.4,1.2
		c3-1,6.4,0.6,7.4,3.6c1,3-0.6,6.4-3.6,7.4C301.4,994.6,297.8,994.9,294.4,994.3z"/>
</g>
<g>
	<path class="st0" d="M917.6,890.1c-3.1-0.5-6-1.6-8.6-3.4c-5.5-3.8-8.8-10.1-8.7-16.6c0-3,0.8-5.8,1.5-8.3c0.7-2.8,1.4-5.1,0.8-6.7
		c-0.4-1.2-1.9-2.4-3.6-3.1c-2.6-0.9-5.8-1-10.2-0.2c-3.2,0.6-6.2-1.5-6.8-4.6c-0.6-3.2,1.5-6.2,4.6-6.8c4.1-0.8,10.3-1.5,16.3,0.7
		c5.1,1.9,8.9,5.5,10.6,10c1.9,5.1,0.6,9.9-0.5,13.8c-0.5,2-1,3.8-1.1,5.4c0,2.6,1.4,5.2,3.7,6.8c2.4,1.6,5.7,2.1,8.4,1.2
		c3-1,6.4,0.6,7.4,3.6c1,3-0.6,6.4-3.6,7.4C924.5,890.4,921,890.6,917.6,890.1z"/>
</g>
<g>
	<path class="st0" d="M744.4,1001.9c-3.1-0.5-6-1.6-8.6-3.4c-5.5-3.8-8.8-10.1-8.7-16.6c0-3,0.8-5.8,1.5-8.3
		c0.7-2.8,1.4-5.1,0.8-6.7c-0.4-1.2-1.9-2.4-3.6-3.1c-2.6-0.9-5.8-1-10.2-0.2c-3.2,0.6-6.2-1.5-6.8-4.6c-0.6-3.2,1.5-6.2,4.6-6.8
		c4.1-0.8,10.3-1.5,16.3,0.7c5.1,1.9,8.9,5.5,10.6,10c1.9,5.1,0.6,9.9-0.5,13.8c-0.5,2-1,3.8-1.1,5.4c0,2.6,1.4,5.2,3.7,6.8
		c2.4,1.6,5.7,2.1,8.4,1.2c3-1,6.4,0.6,7.4,3.6c1,3-0.6,6.4-3.6,7.4C751.4,1002.2,747.8,1002.4,744.4,1001.9z"/>
</g>
<g>
	<path class="st0" d="M975.4,1140.5c-2.1-2.3-3.7-5-4.7-7.9c-2-6.3-0.8-13.4,3.3-18.5c1.9-2.4,4.2-4.1,6.2-5.6
		c2.3-1.7,4.2-3.2,4.8-4.8c0.4-1.2,0-3.1-1-4.7c-1.4-2.3-4-4.3-7.9-6.4c-2.9-1.5-4-5-2.5-7.8c1.5-2.9,5-4,7.8-2.5
		c3.7,1.9,9.1,5.1,12.5,10.5c2.9,4.6,3.7,9.8,2.2,14.4c-1.6,5.2-5.6,8.2-8.9,10.6c-1.6,1.2-3.2,2.4-4.2,3.6c-1.6,2-2.1,5-1.3,7.6
		c0.9,2.7,3.2,5.1,5.9,6.1c3,1,4.7,4.4,3.6,7.4c-1,3-4.4,4.7-7.4,3.6C980.7,1144.9,977.7,1143,975.4,1140.5z"/>
</g>
<g>
	<path class="st0" d="M106.2,2032.2c-3.1,0-6.2-0.7-9-2c-6-2.8-10.3-8.6-11.3-15c-0.4-3-0.1-5.9,0.1-8.4c0.3-2.8,0.6-5.3-0.3-6.8
		c-0.6-1.1-2.2-2.1-4.1-2.4c-2.7-0.5-5.9-0.1-10.1,1.5c-3,1.1-6.4-0.5-7.5-3.5c-1.1-3,0.5-6.4,3.5-7.5c3.9-1.4,9.9-3.2,16.2-1.9
		c5.3,1,9.7,4,12,8.2c2.7,4.7,2.1,9.7,1.7,13.7c-0.2,2-0.4,4-0.2,5.5c0.4,2.5,2.2,4.9,4.7,6.1c2.6,1.2,5.9,1.2,8.5-0.2
		c2.8-1.5,6.4-0.4,7.9,2.4c1.5,2.8,0.4,6.4-2.4,7.9C113.1,2031.3,109.6,2032.2,106.2,2032.2z"/>
</g>
<g>
	<path class="st0" d="M371.8,2009.6c-1.7,2.6-4,4.8-6.7,6.4c-5.7,3.4-12.9,3.8-18.7,1c-2.7-1.3-4.9-3.2-6.9-4.8
		c-2.2-1.8-4.1-3.4-5.8-3.5c-1.3-0.1-3,0.7-4.3,2c-1.9,1.9-3.3,4.8-4.4,9.2c-0.8,3.1-3.9,5-7.1,4.2c-3.1-0.8-5-3.9-4.2-7.1
		c1-4.1,2.9-10,7.4-14.6c3.8-3.8,8.7-5.8,13.5-5.4c5.4,0.4,9.2,3.6,12.3,6.2c1.6,1.3,3.1,2.6,4.5,3.2c2.3,1.1,5.3,0.9,7.7-0.5
		c2.5-1.5,4.3-4.3,4.6-7.1c0.3-3.2,3.2-5.5,6.4-5.2c3.2,0.3,5.5,3.2,5.2,6.4C375,2003.4,373.7,2006.8,371.8,2009.6z"/>
</g>
<g>
	<path class="st0" d="M435.8,2214.2c3.5-2.7,7.5-5.2,11.9-5.8c3.3-0.4,6.9,0.3,9.3,2.5c4.4,4,3.6,10.9,6.2,16.1
		c2,4,6.3,6.9,10.9,7.5c4.7,0.6,9.6-1.2,12.9-4.6"/>
	<path class="st0" d="M482.7,2239.3c-2.9,1-6.1,1.3-9.2,1c-6.6-0.8-12.5-4.9-15.4-10.7c-1.4-2.7-2-5.5-2.5-8
		c-0.6-2.8-1.1-5.2-2.4-6.3c-1-0.9-2.8-1.3-4.6-1c-2.7,0.4-5.6,1.8-9.1,4.6c-2.5,2-6.2,1.6-8.2-1c-2-2.5-1.6-6.2,1-8.2
		c3.3-2.6,8.4-6.1,14.8-7c5.4-0.7,10.5,0.7,14,4c4,3.6,5.1,8.5,6,12.5c0.4,2,0.9,3.9,1.6,5.3c1.2,2.3,3.7,4,6.4,4.3
		c2.9,0.3,6-0.8,8-2.9c2.2-2.3,5.9-2.4,8.2-0.2c2.3,2.2,2.4,5.9,0.2,8.2C489,2236.4,485.9,2238.2,482.7,2239.3z"/>
</g>
<g>
	<path class="st0" d="M667.3,2041.8c-0.4-3.1-0.2-6.2,0.8-9.2c2-6.3,7.2-11.4,13.4-13.1c2.9-0.8,5.8-0.9,8.4-1
		c2.9-0.1,5.3-0.1,6.7-1.2c1-0.8,1.8-2.5,1.9-4.4c0.2-2.7-0.7-5.8-2.8-9.8c-1.5-2.9-0.4-6.4,2.5-7.9c2.9-1.5,6.4-0.4,7.9,2.5
		c1.9,3.7,4.4,9.4,4,15.8c-0.3,5.4-2.7,10.1-6.5,13c-4.3,3.3-9.3,3.4-13.4,3.5c-2,0.1-4,0.1-5.5,0.5c-2.5,0.7-4.6,2.8-5.5,5.5
		c-0.9,2.7-0.4,6,1.3,8.4c1.9,2.6,1.3,6.3-1.4,8.1c-2.6,1.9-6.3,1.3-8.1-1.4C669,2048.6,667.7,2045.3,667.3,2041.8z"/>
</g>
<g>
	<path class="st0" d="M113.6,2269.3c-0.4-3.1-0.2-6.2,0.8-9.2c2-6.3,7.2-11.4,13.4-13.1c2.9-0.8,5.8-0.9,8.4-1
		c2.9-0.1,5.3-0.1,6.7-1.2c1-0.8,1.8-2.5,1.9-4.4c0.2-2.7-0.7-5.8-2.8-9.8c-1.5-2.9-0.4-6.4,2.5-7.9c2.9-1.5,6.4-0.4,7.9,2.5
		c1.9,3.7,4.4,9.4,4,15.8c-0.3,5.4-2.7,10.1-6.5,13c-4.3,3.3-9.3,3.4-13.4,3.5c-2,0.1-4,0.1-5.5,0.5c-2.5,0.7-4.6,2.8-5.5,5.5
		c-0.9,2.7-0.4,6,1.3,8.4c1.9,2.6,1.3,6.3-1.4,8.1c-2.6,1.9-6.3,1.3-8.1-1.4C115.3,2276,114,2272.7,113.6,2269.3z"/>
</g>
<g>
	<path class="st0" d="M1036.2,2120.6c0.1,3.1-0.4,6.2-1.6,9.1c-2.6,6.1-8.2,10.7-14.5,11.9c-3,0.6-5.9,0.4-8.4,0.2
		c-2.8-0.2-5.3-0.3-6.8,0.6c-1.1,0.7-2,2.3-2.3,4.2c-0.4,2.7,0.2,5.9,1.9,10c1.2,3-0.2,6.4-3.2,7.6c-3,1.2-6.4-0.2-7.6-3.2
		c-1.6-3.9-3.6-9.8-2.6-16.1c0.8-5.3,3.6-9.8,7.7-12.4c4.6-2.8,9.6-2.5,13.6-2.3c2,0.1,4,0.3,5.5,0c2.5-0.5,4.9-2.4,5.9-5
		c1.1-2.7,0.9-6-0.5-8.4c-1.6-2.8-0.7-6.3,2.1-8c2.8-1.6,6.3-0.7,8,2.1C1035.1,2113.8,1036.1,2117.2,1036.2,2120.6z"/>
</g>
<g>
	<path class="st0" d="M795.3,2257c-2.1,2.3-4.6,4.2-7.5,5.4c-6.1,2.6-13.3,2-18.7-1.6c-2.5-1.7-4.5-3.8-6.2-5.7
		c-1.9-2.1-3.6-3.9-5.2-4.3c-1.3-0.3-3,0.3-4.5,1.4c-2.2,1.6-4,4.3-5.6,8.5c-1.2,3-4.6,4.4-7.6,3.2c-3-1.2-4.4-4.6-3.2-7.6
		c1.6-3.9,4.2-9.5,9.4-13.4c4.3-3.3,9.4-4.6,14.1-3.5c5.3,1.2,8.7,4.9,11.4,7.9c1.4,1.5,2.7,3,4,3.8c2.1,1.4,5.2,1.6,7.7,0.6
		c2.7-1.1,4.8-3.6,5.5-6.4c0.8-3.1,3.9-5,7-4.3c3.1,0.8,5,3.9,4.3,7C799.3,2251.3,797.6,2254.4,795.3,2257z"/>
</g>
<g>
	<path class="st0" d="M546.5,2097.1c0.4,3.1,0.1,6.2-0.9,9.2c-2.1,6.3-7.2,11.3-13.5,13c-2.9,0.8-5.8,0.9-8.4,0.9
		c-2.9,0.1-5.3,0.1-6.7,1.1c-1,0.8-1.8,2.5-1.9,4.4c-0.2,2.7,0.7,5.8,2.7,9.8c1.5,2.9,0.3,6.4-2.6,7.8c-2.9,1.5-6.4,0.3-7.8-2.6
		c-1.9-3.7-4.4-9.4-3.9-15.9c0.4-5.4,2.8-10.1,6.6-12.9c4.4-3.2,9.4-3.3,13.4-3.4c2,0,4-0.1,5.5-0.5c2.5-0.7,4.6-2.8,5.5-5.4
		c0.9-2.7,0.4-6-1.2-8.4c-1.9-2.6-1.2-6.3,1.4-8.1c2.6-1.9,6.3-1.2,8.1,1.4C544.9,2090.4,546.1,2093.7,546.5,2097.1z"/>
</g>
<g>
	<path class="st0" d="M303,2161.5c-3.1-0.5-6-1.6-8.6-3.4c-5.5-3.8-8.8-10.1-8.7-16.6c0-3,0.8-5.8,1.5-8.3c0.7-2.8,1.4-5.1,0.8-6.7
		c-0.4-1.2-1.9-2.4-3.6-3.1c-2.6-0.9-5.8-1-10.2-0.2c-3.2,0.6-6.2-1.5-6.8-4.6c-0.6-3.2,1.5-6.2,4.6-6.8c4.1-0.8,10.3-1.5,16.3,0.7
		c5.1,1.9,8.9,5.5,10.6,10c1.9,5.1,0.6,9.9-0.5,13.8c-0.5,2-1,3.8-1.1,5.4c0,2.6,1.4,5.2,3.7,6.8c2.4,1.6,5.7,2.1,8.4,1.2
		c3-1,6.4,0.6,7.4,3.6c1,3-0.6,6.4-3.6,7.4C309.9,2161.8,306.4,2162.1,303,2161.5z"/>
</g>
<g>
	<path class="st0" d="M926.1,2057.3c-3.1-0.5-6-1.6-8.6-3.4c-5.5-3.8-8.8-10.1-8.7-16.6c0-3,0.8-5.8,1.5-8.3
		c0.7-2.8,1.4-5.1,0.8-6.7c-0.4-1.2-1.9-2.4-3.6-3.1c-2.6-0.9-5.8-1-10.2-0.2c-3.2,0.6-6.2-1.5-6.8-4.6c-0.6-3.2,1.5-6.2,4.6-6.8
		c4.1-0.8,10.3-1.5,16.3,0.7c5.1,1.9,8.9,5.5,10.6,10c1.9,5.1,0.6,9.9-0.5,13.8c-0.5,2-1,3.8-1.1,5.4c0,2.6,1.4,5.2,3.7,6.8
		c2.4,1.6,5.7,2.1,8.4,1.2c3-1,6.4,0.6,7.4,3.6c1,3-0.6,6.4-3.6,7.4C933.1,2057.6,929.5,2057.8,926.1,2057.3z"/>
</g>
<g>
	<path class="st0" d="M752.9,2169c-3.1-0.5-6-1.6-8.6-3.4c-5.5-3.8-8.8-10.1-8.7-16.6c0-3,0.8-5.8,1.5-8.3c0.7-2.8,1.4-5.1,0.8-6.7
		c-0.4-1.2-1.9-2.4-3.6-3.1c-2.6-0.9-5.8-1-10.2-0.2c-3.2,0.6-6.2-1.5-6.8-4.6c-0.6-3.2,1.5-6.2,4.6-6.8c4.1-0.8,10.3-1.5,16.3,0.7
		c5.1,1.9,8.9,5.5,10.6,10c1.9,5.1,0.6,9.9-0.5,13.8c-0.5,2-1,3.8-1.1,5.4c0,2.6,1.4,5.2,3.7,6.8c2.4,1.6,5.7,2.1,8.4,1.2
		c3-1,6.4,0.6,7.4,3.6c1,3-0.6,6.4-3.6,7.4C759.9,2169.3,756.3,2169.6,752.9,2169z"/>
</g>
<g>
	<path class="st0" d="M983.9,2307.6c-2.1-2.3-3.7-5-4.7-7.9c-2-6.3-0.8-13.4,3.3-18.5c1.9-2.4,4.2-4.1,6.2-5.6
		c2.3-1.7,4.2-3.2,4.8-4.8c0.4-1.2,0-3.1-1-4.7c-1.4-2.3-4-4.3-7.9-6.4c-2.9-1.5-4-5-2.5-7.8c1.5-2.9,5-4,7.8-2.5
		c3.7,1.9,9.1,5.1,12.5,10.5c2.9,4.6,3.7,9.8,2.2,14.4c-1.6,5.2-5.6,8.2-8.9,10.6c-1.6,1.2-3.2,2.4-4.2,3.6c-1.6,2-2.1,5-1.3,7.6
		c0.9,2.7,3.2,5.1,5.9,6.1c3,1,4.7,4.4,3.6,7.4c-1,3-4.4,4.7-7.4,3.6C989.2,2312.1,986.3,2310.1,983.9,2307.6z"/>
</g>
<g>
	<path class="st0" d="M115.3,1643.1c-3.1,0-6.2-0.7-9-2c-6-2.8-10.3-8.6-11.3-15c-0.4-3-0.1-5.9,0.1-8.4c0.3-2.8,0.6-5.3-0.3-6.8
		c-0.6-1.1-2.2-2.1-4.1-2.4c-2.7-0.5-5.9-0.1-10.1,1.5c-3,1.1-6.4-0.5-7.5-3.5c-1.1-3,0.5-6.4,3.5-7.5c3.9-1.4,9.9-3.2,16.2-1.9
		c5.3,1,9.7,4,12,8.2c2.7,4.7,2.1,9.7,1.7,13.7c-0.2,2-0.4,4-0.2,5.5c0.4,2.5,2.2,4.9,4.7,6.1c2.6,1.2,5.9,1.2,8.5-0.2
		c2.8-1.5,6.4-0.4,7.9,2.4c1.5,2.8,0.4,6.4-2.4,7.9C122.2,1642.3,118.8,1643.1,115.3,1643.1z"/>
</g>
<g>
	<path class="st0" d="M381,1620.6c-1.7,2.6-4,4.8-6.7,6.4c-5.7,3.4-12.9,3.8-18.7,1c-2.7-1.3-4.9-3.2-6.9-4.8
		c-2.2-1.8-4.1-3.4-5.8-3.5c-1.3-0.1-3,0.7-4.3,2c-1.9,1.9-3.3,4.8-4.4,9.2c-0.8,3.1-3.9,5-7.1,4.2c-3.1-0.8-5-3.9-4.2-7.1
		c1-4.1,2.9-10,7.4-14.6c3.8-3.8,8.7-5.8,13.5-5.4c5.4,0.4,9.2,3.6,12.3,6.2c1.6,1.3,3.1,2.6,4.5,3.2c2.3,1.1,5.3,0.9,7.7-0.5
		c2.5-1.5,4.3-4.3,4.6-7.1c0.3-3.2,3.2-5.5,6.4-5.2c3.2,0.3,5.5,3.2,5.2,6.4C384.1,1614.4,382.9,1617.7,381,1620.6z"/>
</g>
<g>
	<path class="st0" d="M491.8,1850.3c-2.9,1-6.1,1.3-9.2,1c-6.6-0.8-12.5-4.9-15.4-10.7c-1.4-2.7-2-5.5-2.5-8
		c-0.6-2.8-1.1-5.2-2.4-6.3c-1-0.9-2.8-1.3-4.6-1c-2.7,0.4-5.6,1.8-9.1,4.6c-2.5,2-6.2,1.6-8.2-1c-2-2.5-1.6-6.2,1-8.2
		c3.3-2.6,8.4-6.1,14.8-7c5.4-0.7,10.5,0.7,14,4c4,3.6,5.1,8.5,6,12.5c0.4,2,0.9,3.9,1.6,5.3c1.2,2.3,3.7,4,6.4,4.3
		c2.9,0.3,6-0.8,8-2.9c2.2-2.3,5.9-2.4,8.2-0.2c2.3,2.2,2.4,5.9,0.2,8.2C498.1,1847.3,495.1,1849.2,491.8,1850.3z"/>
</g>
<g>
	<path class="st0" d="M676.4,1652.8c-0.4-3.1-0.2-6.2,0.8-9.2c2-6.3,7.2-11.4,13.4-13.1c2.9-0.8,5.8-0.9,8.4-1
		c2.9-0.1,5.3-0.1,6.7-1.2c1-0.8,1.8-2.5,1.9-4.4c0.2-2.7-0.7-5.8-2.8-9.8c-1.5-2.9-0.4-6.4,2.5-7.9c2.9-1.5,6.4-0.4,7.9,2.5
		c1.9,3.7,4.4,9.4,4,15.8c-0.3,5.4-2.7,10.1-6.5,13c-4.3,3.3-9.3,3.4-13.4,3.5c-2,0.1-4,0.1-5.5,0.5c-2.5,0.7-4.6,2.8-5.5,5.5
		c-0.9,2.7-0.4,6,1.3,8.4c1.9,2.6,1.3,6.3-1.4,8.1c-2.6,1.9-6.3,1.3-8.1-1.4C678.1,1659.5,676.8,1656.2,676.4,1652.8z"/>
</g>
<g>
	<path class="st0" d="M122.7,1880.2c-0.4-3.1-0.2-6.2,0.8-9.2c2-6.3,7.2-11.4,13.4-13.1c2.9-0.8,5.8-0.9,8.4-1
		c2.9-0.1,5.3-0.1,6.7-1.2c1-0.8,1.8-2.5,1.9-4.4c0.2-2.7-0.7-5.8-2.8-9.8c-1.5-2.9-0.4-6.4,2.5-7.9c2.9-1.5,6.4-0.4,7.9,2.5
		c1.9,3.7,4.4,9.4,4,15.8c-0.3,5.4-2.7,10.1-6.5,13c-4.3,3.3-9.3,3.4-13.4,3.5c-2,0.1-4,0.1-5.5,0.5c-2.5,0.7-4.6,2.8-5.5,5.5
		c-0.9,2.7-0.4,6,1.3,8.4c1.9,2.6,1.3,6.3-1.4,8.1c-2.6,1.9-6.3,1.3-8.1-1.4C124.4,1886.9,123.2,1883.6,122.7,1880.2z"/>
</g>
<g>
	<path class="st0" d="M1045.4,1731.6c0.1,3.1-0.4,6.2-1.6,9.1c-2.6,6.1-8.2,10.7-14.5,11.9c-3,0.6-5.9,0.4-8.4,0.2
		c-2.8-0.2-5.3-0.3-6.8,0.6c-1.1,0.7-2,2.3-2.3,4.2c-0.4,2.7,0.2,5.9,1.9,10c1.2,3-0.2,6.4-3.2,7.6c-3,1.2-6.4-0.2-7.6-3.2
		c-1.6-3.9-3.6-9.8-2.6-16.1c0.8-5.3,3.6-9.8,7.7-12.4c4.6-2.8,9.6-2.5,13.6-2.3c2,0.1,4,0.3,5.5,0c2.5-0.5,4.9-2.4,5.9-5
		c1.1-2.7,0.9-6-0.5-8.4c-1.6-2.8-0.7-6.3,2.1-8c2.8-1.6,6.3-0.7,8,2.1C1044.3,1724.7,1045.2,1728.1,1045.4,1731.6z"/>
</g>
<g>
	<path class="st0" d="M804.4,1867.9c-2.1,2.3-4.6,4.2-7.5,5.4c-6.1,2.6-13.3,2-18.7-1.6c-2.5-1.7-4.5-3.8-6.2-5.7
		c-1.9-2.1-3.6-3.9-5.2-4.3c-1.3-0.3-3,0.3-4.5,1.4c-2.2,1.6-4,4.3-5.6,8.5c-1.2,3-4.6,4.4-7.6,3.2c-3-1.2-4.4-4.6-3.2-7.6
		c1.6-3.9,4.2-9.5,9.4-13.4c4.3-3.3,9.4-4.6,14.1-3.5c5.3,1.2,8.7,4.9,11.4,7.9c1.4,1.5,2.7,3,4,3.8c2.1,1.4,5.2,1.6,7.7,0.6
		c2.7-1.1,4.8-3.6,5.5-6.4c0.8-3.1,3.9-5,7-4.3c3.1,0.8,5,3.9,4.3,7C808.4,1862.3,806.7,1865.4,804.4,1867.9z"/>
</g>
<g>
	<path class="st0" d="M555.7,1708c0.4,3.1,0.1,6.2-0.9,9.2c-2.1,6.3-7.2,11.3-13.5,13c-2.9,0.8-5.8,0.9-8.4,0.9
		c-2.9,0.1-5.3,0.1-6.7,1.1c-1,0.8-1.8,2.5-1.9,4.4c-0.2,2.7,0.7,5.8,2.7,9.8c1.5,2.9,0.3,6.4-2.6,7.8c-2.9,1.5-6.4,0.3-7.8-2.6
		c-1.9-3.7-4.4-9.4-3.9-15.9c0.4-5.4,2.8-10.1,6.6-12.9c4.4-3.2,9.4-3.3,13.4-3.4c2,0,4-0.1,5.5-0.5c2.5-0.7,4.6-2.8,5.5-5.4
		c0.9-2.7,0.4-6-1.2-8.4c-1.9-2.6-1.2-6.3,1.4-8.1c2.6-1.9,6.3-1.2,8.1,1.4C554,1701.3,555.3,1704.6,555.7,1708z"/>
</g>
<g>
	<path class="st0" d="M312.1,1772.5c-3.1-0.5-6-1.6-8.6-3.4c-5.5-3.8-8.8-10.1-8.7-16.6c0-3,0.8-5.8,1.5-8.3
		c0.7-2.8,1.4-5.1,0.8-6.7c-0.4-1.2-1.9-2.4-3.6-3.1c-2.6-0.9-5.8-1-10.2-0.2c-3.2,0.6-6.2-1.5-6.8-4.6c-0.6-3.2,1.5-6.2,4.6-6.8
		c4.1-0.8,10.3-1.5,16.3,0.7c5.1,1.9,8.9,5.5,10.6,10c1.9,5.1,0.6,9.9-0.5,13.8c-0.5,2-1,3.8-1.1,5.4c0,2.6,1.4,5.2,3.7,6.8
		c2.4,1.6,5.7,2.1,8.4,1.2c3-1,6.4,0.6,7.4,3.6c1,3-0.6,6.4-3.6,7.4C319,1772.8,315.5,1773,312.1,1772.5z"/>
</g>
<g>
	<path class="st0" d="M935.3,1668.2c-3.1-0.5-6-1.6-8.6-3.4c-5.5-3.8-8.8-10.1-8.7-16.6c0-3,0.8-5.8,1.5-8.3
		c0.7-2.8,1.4-5.1,0.8-6.7c-0.4-1.2-1.9-2.4-3.6-3.1c-2.6-0.9-5.8-1-10.2-0.2c-3.2,0.6-6.2-1.5-6.8-4.6c-0.6-3.2,1.5-6.2,4.6-6.8
		c4.1-0.8,10.3-1.5,16.3,0.7c5.1,1.9,8.9,5.5,10.6,10c1.9,5.1,0.6,9.9-0.5,13.8c-0.5,2-1,3.8-1.1,5.4c0,2.6,1.4,5.2,3.7,6.8
		c2.4,1.6,5.7,2.1,8.4,1.2c3-1,6.4,0.6,7.4,3.6c1,3-0.6,6.4-3.6,7.4C942.2,1668.5,938.7,1668.7,935.3,1668.2z"/>
</g>
<g>
	<path class="st0" d="M762.1,1780c-3.1-0.5-6-1.6-8.6-3.4c-5.5-3.8-8.8-10.1-8.7-16.6c0-3,0.8-5.8,1.5-8.3c0.7-2.8,1.4-5.1,0.8-6.7
		c-0.4-1.2-1.9-2.4-3.6-3.1c-2.6-0.9-5.8-1-10.2-0.2c-3.2,0.6-6.2-1.5-6.8-4.6c-0.6-3.2,1.5-6.2,4.6-6.8c4.1-0.8,10.3-1.5,16.3,0.7
		c5.1,1.9,8.9,5.5,10.6,10c1.9,5.1,0.6,9.9-0.5,13.8c-0.5,2-1,3.8-1.1,5.4c0,2.6,1.4,5.2,3.7,6.8c2.4,1.6,5.7,2.1,8.4,1.2
		c3-1,6.4,0.6,7.4,3.6c1,3-0.6,6.4-3.6,7.4C769,1780.3,765.5,1780.5,762.1,1780z"/>
</g>
<g>
	<path class="st0" d="M993.1,1918.6c-2.1-2.3-3.7-5-4.7-7.9c-2-6.3-0.8-13.4,3.3-18.5c1.9-2.4,4.2-4.1,6.2-5.6
		c2.3-1.7,4.2-3.2,4.8-4.8c0.4-1.2,0-3.1-1-4.7c-1.4-2.3-4-4.3-7.9-6.4c-2.9-1.5-4-5-2.5-7.8c1.5-2.9,5-4,7.8-2.5
		c3.7,1.9,9.1,5.1,12.5,10.5c2.9,4.6,3.7,9.8,2.2,14.4c-1.6,5.2-5.6,8.2-8.9,10.6c-1.6,1.2-3.2,2.4-4.2,3.6c-1.6,2-2.1,5-1.3,7.6
		c0.9,2.7,3.2,5.1,5.9,6.1c3,1,4.7,4.4,3.6,7.4c-1,3-4.4,4.7-7.4,3.6C998.4,1923,995.4,1921.1,993.1,1918.6z"/>
</g>
<g>
	<path class="st0" d="M118.7,1254.1c-3.1,0-6.2-0.7-9-2c-6-2.8-10.3-8.6-11.3-15c-0.4-3-0.1-5.9,0.1-8.4c0.3-2.8,0.6-5.3-0.3-6.8
		c-0.6-1.1-2.2-2.1-4.1-2.4c-2.7-0.5-5.9-0.1-10.1,1.5c-3,1.1-6.4-0.5-7.5-3.5c-1.1-3,0.5-6.4,3.5-7.5c3.9-1.4,9.9-3.2,16.2-1.9
		c5.3,1,9.7,4,12,8.2c2.7,4.7,2.1,9.7,1.7,13.7c-0.2,2-0.4,4-0.2,5.5c0.4,2.5,2.2,4.9,4.7,6.1c2.6,1.2,5.9,1.2,8.5-0.2
		c2.8-1.5,6.4-0.4,7.9,2.4c1.5,2.8,0.4,6.4-2.4,7.9C125.5,1253.2,122.1,1254.1,118.7,1254.1z"/>
</g>
<g>
	<path class="st0" d="M384.3,1231.5c-1.7,2.6-4,4.8-6.7,6.4c-5.7,3.4-12.9,3.8-18.7,1c-2.7-1.3-4.9-3.2-6.9-4.8
		c-2.2-1.8-4.1-3.4-5.8-3.5c-1.3-0.1-3,0.7-4.3,2c-1.9,1.9-3.3,4.8-4.4,9.2c-0.8,3.1-3.9,5-7.1,4.2c-3.1-0.8-5-3.9-4.2-7.1
		c1-4.1,2.9-10,7.4-14.6c3.8-3.8,8.7-5.8,13.5-5.4c5.4,0.4,9.2,3.6,12.3,6.2c1.6,1.3,3.1,2.6,4.5,3.2c2.3,1.1,5.3,0.9,7.7-0.5
		c2.5-1.5,4.3-4.3,4.6-7.1c0.3-3.2,3.2-5.5,6.4-5.2c3.2,0.3,5.5,3.2,5.2,6.4C387.5,1225.3,386.2,1228.6,384.3,1231.5z"/>
</g>
<g>
	<path class="st0" d="M495.1,1461.2c-2.9,1-6.1,1.3-9.2,1c-6.6-0.8-12.5-4.9-15.4-10.7c-1.4-2.7-2-5.5-2.5-8
		c-0.6-2.8-1.1-5.2-2.4-6.3c-1-0.9-2.8-1.3-4.6-1c-2.7,0.4-5.6,1.8-9.1,4.6c-2.5,2-6.2,1.6-8.2-1c-2-2.5-1.6-6.2,1-8.2
		c3.3-2.6,8.4-6.1,14.8-7c5.4-0.7,10.5,0.7,14,4c4,3.6,5.1,8.5,6,12.5c0.4,2,0.9,3.9,1.6,5.3c1.2,2.3,3.7,4,6.4,4.3
		c2.9,0.3,6-0.8,8-2.9c2.2-2.3,5.9-2.4,8.2-0.2c2.3,2.2,2.4,5.9,0.2,8.2C501.4,1458.3,498.4,1460.1,495.1,1461.2z"/>
</g>
<g>
	<path class="st0" d="M679.7,1263.7c-0.4-3.1-0.2-6.2,0.8-9.2c2-6.3,7.2-11.4,13.4-13.1c2.9-0.8,5.8-0.9,8.4-1
		c2.9-0.1,5.3-0.1,6.7-1.2c1-0.8,1.8-2.5,1.9-4.4c0.2-2.7-0.7-5.8-2.8-9.8c-1.5-2.9-0.4-6.4,2.5-7.9c2.9-1.5,6.4-0.4,7.9,2.5
		c1.9,3.7,4.4,9.4,4,15.8c-0.3,5.4-2.7,10.1-6.5,13c-4.3,3.3-9.3,3.4-13.4,3.5c-2,0.1-4,0.1-5.5,0.5c-2.5,0.7-4.6,2.8-5.5,5.5
		c-0.9,2.7-0.4,6,1.3,8.4c1.9,2.6,1.3,6.3-1.4,8.1c-2.6,1.9-6.3,1.3-8.1-1.4C681.4,1270.5,680.2,1267.1,679.7,1263.7z"/>
</g>
<g>
	<path class="st0" d="M126,1491.2c-0.4-3.1-0.2-6.2,0.8-9.2c2-6.3,7.2-11.4,13.4-13.1c2.9-0.8,5.8-0.9,8.4-1
		c2.9-0.1,5.3-0.1,6.7-1.2c1-0.8,1.8-2.5,1.9-4.4c0.2-2.7-0.7-5.8-2.8-9.8c-1.5-2.9-0.4-6.4,2.5-7.9c2.9-1.5,6.4-0.4,7.9,2.5
		c1.9,3.7,4.4,9.4,4,15.8c-0.3,5.4-2.7,10.1-6.5,13c-4.3,3.3-9.3,3.4-13.4,3.5c-2,0.1-4,0.1-5.5,0.5c-2.5,0.7-4.6,2.8-5.5,5.5
		c-0.9,2.7-0.4,6,1.3,8.4c1.9,2.6,1.3,6.3-1.4,8.1c-2.6,1.9-6.3,1.3-8.1-1.4C127.7,1497.9,126.5,1494.6,126,1491.2z"/>
</g>
<g>
	<path class="st0" d="M1048.7,1342.5c0.1,3.1-0.4,6.2-1.6,9.1c-2.6,6.1-8.2,10.7-14.5,11.9c-3,0.6-5.9,0.4-8.4,0.2
		c-2.8-0.2-5.3-0.3-6.8,0.6c-1.1,0.7-2,2.3-2.3,4.2c-0.4,2.7,0.2,5.9,1.9,10c1.2,3-0.2,6.4-3.2,7.6c-3,1.2-6.4-0.2-7.6-3.2
		c-1.6-3.9-3.6-9.8-2.6-16.1c0.8-5.3,3.6-9.8,7.7-12.4c4.6-2.8,9.6-2.5,13.6-2.3c2,0.1,4,0.3,5.5,0c2.5-0.5,4.9-2.4,5.9-5
		c1.1-2.7,0.9-6-0.5-8.4c-1.6-2.8-0.7-6.3,2.1-8c2.8-1.6,6.3-0.7,8,2.1C1047.6,1335.7,1048.5,1339.1,1048.7,1342.5z"/>
</g>
<g>
	<path class="st0" d="M807.8,1478.9c-2.1,2.3-4.6,4.2-7.5,5.4c-6.1,2.6-13.3,2-18.7-1.6c-2.5-1.7-4.5-3.8-6.2-5.7
		c-1.9-2.1-3.6-3.9-5.2-4.3c-1.3-0.3-3,0.3-4.5,1.4c-2.2,1.6-4,4.3-5.6,8.5c-1.2,3-4.6,4.4-7.6,3.2c-3-1.2-4.4-4.6-3.2-7.6
		c1.6-3.9,4.2-9.5,9.4-13.4c4.3-3.3,9.4-4.6,14.1-3.5c5.3,1.2,8.7,4.9,11.4,7.9c1.4,1.5,2.7,3,4,3.8c2.1,1.4,5.2,1.6,7.7,0.6
		c2.7-1.1,4.8-3.6,5.5-6.4c0.8-3.1,3.9-5,7-4.3c3.1,0.8,5,3.9,4.3,7C811.7,1473.2,810,1476.3,807.8,1478.9z"/>
</g>
<g>
	<path class="st0" d="M559,1319c0.4,3.1,0.1,6.2-0.9,9.2c-2.1,6.3-7.2,11.3-13.5,13c-2.9,0.8-5.8,0.9-8.4,0.9
		c-2.9,0.1-5.3,0.1-6.7,1.1c-1,0.8-1.8,2.5-1.9,4.4c-0.2,2.7,0.7,5.8,2.7,9.8c1.5,2.9,0.3,6.4-2.6,7.8c-2.9,1.5-6.4,0.3-7.8-2.6
		c-1.9-3.7-4.4-9.4-3.9-15.9c0.4-5.4,2.8-10.1,6.6-12.9c4.4-3.2,9.4-3.3,13.4-3.4c2,0,4-0.1,5.5-0.5c2.5-0.7,4.6-2.8,5.5-5.4
		c0.9-2.7,0.4-6-1.2-8.4c-1.9-2.6-1.2-6.3,1.4-8.1c2.6-1.9,6.3-1.2,8.1,1.4C557.4,1312.3,558.6,1315.6,559,1319z"/>
</g>
<g>
	<path class="st0" d="M315.4,1383.4c-3.1-0.5-6-1.6-8.6-3.4c-5.5-3.8-8.8-10.1-8.7-16.6c0-3,0.8-5.8,1.5-8.3
		c0.7-2.8,1.4-5.1,0.8-6.7c-0.4-1.2-1.9-2.4-3.6-3.1c-2.6-0.9-5.8-1-10.2-0.2c-3.2,0.6-6.2-1.5-6.8-4.6c-0.6-3.2,1.5-6.2,4.6-6.8
		c4.1-0.8,10.3-1.5,16.3,0.7c5.1,1.9,8.9,5.5,10.6,10c1.9,5.1,0.6,9.9-0.5,13.8c-0.5,2-1,3.8-1.1,5.4c0,2.6,1.4,5.2,3.7,6.8
		c2.4,1.6,5.7,2.1,8.4,1.2c3-1,6.4,0.6,7.4,3.6c1,3-0.6,6.4-3.6,7.4C322.3,1383.7,318.8,1384,315.4,1383.4z"/>
</g>
<g>
	<path class="st0" d="M938.6,1279.1c-3.1-0.5-6-1.6-8.6-3.4c-5.5-3.8-8.8-10.1-8.7-16.6c0-3,0.8-5.8,1.5-8.3
		c0.7-2.8,1.4-5.1,0.8-6.7c-0.4-1.2-1.9-2.4-3.6-3.1c-2.6-0.9-5.8-1-10.2-0.2c-3.2,0.6-6.2-1.5-6.8-4.6c-0.6-3.2,1.5-6.2,4.6-6.8
		c4.1-0.8,10.3-1.5,16.3,0.7c5.1,1.9,8.9,5.5,10.6,10c1.9,5.1,0.6,9.9-0.5,13.8c-0.5,2-1,3.8-1.1,5.4c0,2.6,1.4,5.2,3.7,6.8
		c2.4,1.6,5.7,2.1,8.4,1.2c3-1,6.4,0.6,7.4,3.6c1,3-0.6,6.4-3.6,7.4C945.5,1279.4,942,1279.7,938.6,1279.1z"/>
</g>
<g>
	<path class="st0" d="M765.4,1390.9c-3.1-0.5-6-1.6-8.6-3.4c-5.5-3.8-8.8-10.1-8.7-16.6c0-3,0.8-5.8,1.5-8.3
		c0.7-2.8,1.4-5.1,0.8-6.7c-0.4-1.2-1.9-2.4-3.6-3.1c-2.6-0.9-5.8-1-10.2-0.2c-3.2,0.6-6.2-1.5-6.8-4.6c-0.6-3.2,1.5-6.2,4.6-6.8
		c4.1-0.8,10.3-1.5,16.3,0.7c5.1,1.9,8.9,5.5,10.6,10c1.9,5.1,0.6,9.9-0.5,13.8c-0.5,2-1,3.8-1.1,5.4c0,2.6,1.4,5.2,3.7,6.8
		c2.4,1.6,5.7,2.1,8.4,1.2c3-1,6.4,0.6,7.4,3.6c1,3-0.6,6.4-3.6,7.4C772.3,1391.2,768.8,1391.5,765.4,1390.9z"/>
</g>
<g>
	<path class="st0" d="M996.4,1529.5c-2.1-2.3-3.7-5-4.7-7.9c-2-6.3-0.8-13.4,3.3-18.5c1.9-2.4,4.2-4.1,6.2-5.6
		c2.3-1.7,4.2-3.2,4.8-4.8c0.4-1.2,0-3.1-1-4.7c-1.4-2.3-4-4.3-7.9-6.4c-2.9-1.5-4-5-2.5-7.8c1.5-2.9,5-4,7.8-2.5
		c3.7,1.9,9.1,5.1,12.5,10.5c2.9,4.6,3.7,9.8,2.2,14.4c-1.6,5.2-5.6,8.2-8.9,10.6c-1.6,1.2-3.2,2.4-4.2,3.6c-1.6,2-2.1,5-1.3,7.6
		c0.9,2.7,3.2,5.1,5.9,6.1c3,1,4.7,4.4,3.6,7.4c-1,3-4.4,4.7-7.4,3.6C1001.7,1534,998.7,1532,996.4,1529.5z"/>
</g>
<g>
	<path class="st0" d="M610.7,1554.7c-3.1-0.5-6-1.6-8.6-3.4c-5.5-3.8-8.8-10.1-8.7-16.6c0-3,0.8-5.8,1.5-8.3
		c0.7-2.8,1.4-5.1,0.8-6.7c-0.4-1.2-1.9-2.4-3.6-3.1c-2.6-0.9-5.8-1-10.2-0.2c-3.2,0.6-6.2-1.5-6.8-4.6c-0.6-3.2,1.5-6.2,4.6-6.8
		c4.1-0.8,10.3-1.5,16.3,0.7c5.1,1.9,8.9,5.5,10.6,10c1.9,5.1,0.6,9.9-0.5,13.8c-0.5,2-1,3.8-1.1,5.4c0,2.6,1.4,5.2,3.7,6.8
		c2.4,1.6,5.7,2.1,8.4,1.2c3-1,6.4,0.6,7.4,3.6c1,3-0.6,6.4-3.6,7.4C617.6,1555,614.1,1555.2,610.7,1554.7z"/>
</g>
<g>
	<path class="st0" d="M610.7,1943.7c-3.1-0.5-6-1.6-8.6-3.4c-5.5-3.8-8.8-10.1-8.7-16.6c0-3,0.8-5.8,1.5-8.3
		c0.7-2.8,1.4-5.1,0.8-6.7c-0.4-1.2-1.9-2.4-3.6-3.1c-2.6-0.9-5.8-1-10.2-0.2c-3.2,0.6-6.2-1.5-6.8-4.6c-0.6-3.2,1.5-6.2,4.6-6.8
		c4.1-0.8,10.3-1.5,16.3,0.7c5.1,1.9,8.9,5.5,10.6,10c1.9,5.1,0.6,9.9-0.5,13.8c-0.5,2-1,3.8-1.1,5.4c0,2.6,1.4,5.2,3.7,6.8
		c2.4,1.6,5.7,2.1,8.4,1.2c3-1,6.4,0.6,7.4,3.6c1,3-0.6,6.4-3.6,7.4C617.6,1944,614.1,1944.3,610.7,1943.7z"/>
</g>
<g>
	<path class="st0" d="M560.8,1171.5c-3.1-0.5-6-1.6-8.6-3.4c-5.5-3.8-8.8-10.1-8.7-16.6c0-3,0.8-5.8,1.5-8.3
		c0.7-2.8,1.4-5.1,0.8-6.7c-0.4-1.2-1.9-2.4-3.6-3.1c-2.6-0.9-5.8-1-10.2-0.2c-3.2,0.6-6.2-1.5-6.8-4.6c-0.6-3.2,1.5-6.2,4.6-6.8
		c4.1-0.8,10.3-1.5,16.3,0.7c5.1,1.9,8.9,5.5,10.6,10c1.9,5.1,0.6,9.9-0.5,13.8c-0.5,2-1,3.8-1.1,5.4c0,2.6,1.4,5.2,3.7,6.8
		c2.4,1.6,5.7,2.1,8.4,1.2c3-1,6.4,0.6,7.4,3.6c1,3-0.6,6.4-3.6,7.4C567.8,1171.8,564.2,1172,560.8,1171.5z"/>
</g>
<g>
	<path class="st0" d="M570,807.8c-3.1-0.5-6-1.6-8.6-3.4c-5.5-3.8-8.8-10.1-8.7-16.6c0-3,0.8-5.8,1.5-8.3c0.7-2.8,1.4-5.1,0.8-6.7
		c-0.4-1.2-1.9-2.4-3.6-3.1c-2.6-0.9-5.8-1-10.2-0.2c-3.2,0.6-6.2-1.5-6.8-4.6c-0.6-3.2,1.5-6.2,4.6-6.8c4.1-0.8,10.3-1.5,16.3,0.7
		c5.1,1.9,8.9,5.5,10.6,10c1.9,5.1,0.6,9.9-0.5,13.8c-0.5,2-1,3.8-1.1,5.4c0,2.6,1.4,5.2,3.7,6.8c2.4,1.6,5.7,2.1,8.4,1.2
		c3-1,6.4,0.6,7.4,3.6c1,3-0.6,6.4-3.6,7.4C576.9,808.1,573.4,808.3,570,807.8z"/>
</g>
<g>
	<path class="st0" d="M527.4,434c-3.1-0.5-6-1.6-8.6-3.4c-5.5-3.8-8.8-10.1-8.7-16.6c0-3,0.8-5.8,1.5-8.3c0.7-2.8,1.4-5.1,0.8-6.7
		c-0.4-1.2-1.9-2.4-3.6-3.1c-2.6-0.9-5.8-1-10.2-0.2c-3.2,0.6-6.2-1.5-6.8-4.6c-0.6-3.2,1.5-6.2,4.6-6.8c4.1-0.8,10.3-1.5,16.3,0.7
		c5.1,1.9,8.9,5.5,10.6,10c1.9,5.1,0.6,9.9-0.5,13.8c-0.5,2-1,3.8-1.1,5.4c0,2.6,1.4,5.2,3.7,6.8c2.4,1.6,5.7,2.1,8.4,1.2
		c3-1,6.4,0.6,7.4,3.6c1,3-0.6,6.4-3.6,7.4C534.3,434.3,530.8,434.5,527.4,434z"/>
</g>
</svg>
